<svg xmlns="http://www.w3.org/2000/svg" xmlns:xlink="http://www.w3.org/1999/xlink" version="1.1" width="362"
     height="362" viewBox="0 0 362 362" xml:space="preserve">
    <g transform="matrix(6.905 0 0 6.905 181.4008394544 181.4008394544)" id="0eiQrIpO6dXih6gwu5xjn">
<path style="stroke: rgb(40,119,185); stroke-width: 0; stroke-dasharray: none; stroke-linecap: butt; stroke-dashoffset: 0; stroke-linejoin: miter; stroke-miterlimit: 4; fill: rgb(0,0,0); fill-rule: nonzero; opacity: 1;"
      transform=" translate(0, 0)"
      d="M -26.23295 -15.10325 C -26.23295 -21.25001 -21.25001 -26.23295 -15.10325 -26.23295 L 15.10325 -26.23295 L 15.10325 -26.23295 C 21.25001 -26.23295 26.23295 -21.25001 26.23295 -15.10325 L 26.23295 15.10325 L 26.23295 15.10325 C 26.23295 21.25001 21.25001 26.23295 15.10325 26.23295 L -15.10325 26.23295 L -15.10325 26.23295 C -21.25001 26.23295 -26.23295 21.25001 -26.23295 15.10325 z"
      stroke-linecap="round"/>
</g>
    <g transform="matrix(1.6165501381 0 0 1.61108882 181.4008394544 181.4008394544)" id="z3rOb_NEH2ojmNrI37IPc">
<path style="stroke: rgb(241,139,122); stroke-width: 0; stroke-dasharray: none; stroke-linecap: butt; stroke-dashoffset: 0; stroke-linejoin: miter; stroke-miterlimit: 4; fill: rgb(255,255,255); fill-rule: nonzero; opacity: 1;"
      transform=" translate(0, 0)"
      d="M 0 -91.55299 C 50.53725 -91.55299 91.55299 -50.53724999999999 91.55299 0 C 91.55299 50.53725 50.53724999999999 91.55299 0 91.55299 C -50.53725 91.55299 -91.55299 50.53724999999999 -91.55299 0 C -91.55299 -50.53725 -50.53724999999999 -91.55299 0 -91.55299 z"
      stroke-linecap="round"/>
</g>
    <g transform="matrix(3.812 0 0 3.812 181.4008394544 181.23579041)" id="sI4QfZeKIQ7dYRzW6bchd">
<path style="stroke: rgb(89,15,48); stroke-width: 0; stroke-dasharray: none; stroke-linecap: butt; stroke-dashoffset: 0; stroke-linejoin: miter; stroke-miterlimit: 4; fill: rgb(0,0,0); fill-rule: nonzero; opacity: 1;"
      transform=" translate(0, 0)"
      d="M 0 -26.23295 C 14.48059 -26.23295 26.23295 -14.48059 26.23295 0 C 26.23295 14.48059 14.48059 26.23295 0 26.23295 C -14.48059 26.23295 -26.23295 14.48059 -26.23295 0 C -26.23295 -14.48059 -14.48059 -26.23295 0 -26.23295 z"
      stroke-linecap="round"/>
</g>
    <g transform="matrix(0 -2.81148625 2.129025 0 270.335446102 176.8794553885)" id="dOXKwQz5T_20uQgy_bmoJ">
<path style="stroke: none; stroke-width: 1; stroke-dasharray: none; stroke-linecap: butt; stroke-dashoffset: 0; stroke-linejoin: miter; stroke-miterlimit: 4; fill: rgb(0,0,0); fill-rule: nonzero; opacity: 1;"
      transform=" translate(-40, -40)" d="M 60 40 L 80 80 L 40 80 L 0 80 L 20 40 L 40 0 L 60 40 z"
      stroke-linecap="round"/>
</g>
    <g transform="matrix(0.91488 0 0 0.91488 282.8825 110.0781)" id="mdZ8VUK7ZZwDWfEYzPa-C">
<path style="stroke: rgb(196,75,61); stroke-width: 0; stroke-dasharray: none; stroke-linecap: butt; stroke-dashoffset: 0; stroke-linejoin: miter; stroke-miterlimit: 4; fill: rgb(255,255,255); fill-rule: nonzero; opacity: 1;"
      transform=" translate(0, 0)"
      d="M 0 -26.23295 C 14.48059 -26.23295 26.23295 -14.48059 26.23295 0 C 26.23295 14.48059 14.48059 26.23295 0 26.23295 C -14.48059 26.23295 -26.23295 14.48059 -26.23295 0 C -26.23295 -14.48059 -14.48059 -26.23295 0 -26.23295 z"
      stroke-linecap="round"/>
</g>
    <g transform="matrix(1.5887900084 0 0 0.7753220908 255.24989422 181.4961757803)" id="2L13OG9MLZpJ5Ey_CYeK-">
<path style="stroke: rgb(193,140,202); stroke-width: 0; stroke-dasharray: none; stroke-linecap: butt; stroke-dashoffset: 0; stroke-linejoin: miter; stroke-miterlimit: 4; fill: rgb(255,255,255); fill-rule: nonzero; opacity: 1;"
      transform=" translate(0, 0)"
      d="M -30.95488 -25.79573 C -30.95488 -28.645049999999998 -29.82769 -30.95488 -28.43724 -30.95488 L 28.43724 -30.95488 L 28.43724 -30.95488 C 29.82769 -30.95488 30.95488 -28.645049999999998 30.95488 -25.79573 L 30.95488 30.954880000000003 L -30.954870000000003 30.954880000000003 z"
      stroke-linecap="round"/>
</g>
    <g transform="matrix(0.91488 0 0 0.91488 208.1099105465 181.4326182297)" id="jx5k8lWx9PumTG-3_0f7j">
<path style="stroke: rgb(196,75,61); stroke-width: 0; stroke-dasharray: none; stroke-linecap: butt; stroke-dashoffset: 0; stroke-linejoin: miter; stroke-miterlimit: 4; fill: rgb(255,255,255); fill-rule: nonzero; opacity: 1;"
      transform=" translate(0, 0)"
      d="M 0 -26.23295 C 14.48059 -26.23295 26.23295 -14.48059 26.23295 0 C 26.23295 14.48059 14.48059 26.23295 0 26.23295 C -14.48059 26.23295 -26.23295 14.48059 -26.23295 0 C -26.23295 -14.48059 -14.48059 -26.23295 0 -26.23295 z"
      stroke-linecap="round"/>
</g>
    <g transform="matrix(0.91488 0 0 0.91488 303.24989422 181.4961757803)" id="bfXynBh2HzNBGoDyaZQaP">
<path style="stroke: rgb(196,75,61); stroke-width: 0; stroke-dasharray: none; stroke-linecap: butt; stroke-dashoffset: 0; stroke-linejoin: miter; stroke-miterlimit: 4; fill: rgb(255,255,255); fill-rule: nonzero; opacity: 1;"
      transform=" translate(0, 0)"
      d="M 0 -26.23295 C 14.48059 -26.23295 26.23295 -14.48059 26.23295 0 C 26.23295 14.48059 14.48059 26.23295 0 26.23295 C -14.48059 26.23295 -26.23295 14.48059 -26.23295 0 C -26.23295 -14.48059 -14.48059 -26.23295 0 -26.23295 z"
      stroke-linecap="round"/>
</g>
    <g transform="matrix(0.91488 0 0 0.91488 286.5986358867 246.51534617)" id="X6UVl0zKVYiM3cQ0EffMK">
<path style="stroke: rgb(196,75,61); stroke-width: 0; stroke-dasharray: none; stroke-linecap: butt; stroke-dashoffset: 0; stroke-linejoin: miter; stroke-miterlimit: 4; fill: rgb(255,255,255); fill-rule: nonzero; opacity: 1;"
      transform=" translate(0, 0)"
      d="M 0 -26.23295 C 14.48059 -26.23295 26.23295 -14.48059 26.23295 0 C 26.23295 14.48059 14.48059 26.23295 0 26.23295 C -14.48059 26.23295 -26.23295 14.48059 -26.23295 0 C -26.23295 -14.48059 -14.48059 -26.23295 0 -26.23295 z"
      stroke-linecap="round"/>
</g>
</svg>